<svg width="148" height="33" viewBox="0 0 148 33" fill="none" xmlns="http://www.w3.org/2000/svg">
<g opacity="0.91">
<g opacity="0.91">
<path opacity="0.91" d="M39.1443 18.5915C39.1443 17.7351 38.3984 17.2102 37.1553 17.2102C36.2713 17.2102 35.4149 17.4589 34.7243 17.9285V15.7737C35.3597 15.387 36.5199 15.0279 37.6802 15.0279C40.1388 15.0279 41.4924 16.271 41.4924 18.4533V24.1164H39.1166V23.6468C38.8128 23.9507 37.9564 24.2822 36.9619 24.2822C35.1663 24.2822 33.6746 23.2601 33.6746 21.4092C33.6746 19.7241 35.1663 18.5638 37.1277 18.5638C37.9012 18.5638 38.7575 18.8125 39.1166 19.0887V18.5915H39.1443ZM39.1443 21.0777C38.9233 20.6081 38.2603 20.3042 37.5697 20.3042C36.7962 20.3042 35.995 20.6357 35.995 21.4092C35.995 22.1827 36.7962 22.5142 37.5697 22.5142C38.2603 22.5142 38.9233 22.2103 39.1443 21.7407V21.0777Z" fill="#383838"/>
<path opacity="0.91" d="M48.4539 23.3982C48.0672 23.8678 47.1832 24.3374 46.2163 24.3374C43.6196 24.3374 42.1831 22.238 42.1831 19.6965C42.1831 17.155 43.6472 15.0555 46.2163 15.0555C47.1832 15.0555 48.0396 15.5251 48.4539 15.9948V11.2157H50.9402V24.1441H48.4539V23.3982ZM48.4539 18.2324C48.1777 17.6246 47.4871 17.2102 46.7964 17.2102C45.4705 17.2102 44.6693 18.2876 44.6693 19.7241C44.6693 21.133 45.4705 22.2103 46.7964 22.2103C47.5423 22.2103 48.1777 21.796 48.4539 21.1882V18.2324Z" fill="#383838"/>
<path opacity="0.91" d="M54.7799 24.1441L51.4097 15.2489H54.0064L56.0506 21.1606L58.0672 15.2489H60.5535L57.1832 24.1441H54.7799Z" fill="#383838"/>
<path opacity="0.91" d="M65.6916 18.5915C65.6916 17.7351 64.9458 17.2102 63.7026 17.2102C62.8187 17.2102 61.9623 17.4589 61.2717 17.9285V15.7737C61.907 15.387 63.0673 15.0279 64.2275 15.0279C66.6861 15.0279 68.0397 16.271 68.0397 18.4533V24.1164H65.664V23.6468C65.3601 23.9507 64.5038 24.2822 63.5093 24.2822C61.7137 24.2822 60.2219 23.2601 60.2219 21.4092C60.2219 19.7241 61.7137 18.5638 63.675 18.5638C64.4485 18.5638 65.3049 18.8125 65.664 19.0887V18.5915H65.6916ZM65.6916 21.0777C65.4706 20.6081 64.8076 20.3042 64.117 20.3042C63.3435 20.3042 62.5424 20.6357 62.5424 21.4092C62.5424 22.1827 63.3435 22.5142 64.117 22.5142C64.8076 22.5142 65.4706 22.2103 65.6916 21.7407V21.0777Z" fill="#383838"/>
<path opacity="0.91" d="M69.283 15.2489H71.7416V16.0776C72.2112 15.5251 73.0952 15.0555 74.1173 15.0555C76.1339 15.0555 77.2665 16.3815 77.2665 18.3429V24.1441H74.8079V18.8401C74.8079 17.9009 74.3383 17.2655 73.3438 17.2655C72.5979 17.2655 71.9349 17.7351 71.7416 18.5086V24.1441H69.283V15.2489Z" fill="#383838"/>
<path opacity="0.91" d="M82.018 24.1441H79.5594V17.2379H77.8743V15.2489H79.5594V12.8455H82.018V15.2489H83.8965V17.2379H82.018V24.1441Z" fill="#383838"/>
<path opacity="0.91" d="M89.2004 18.5915C89.2004 17.7351 88.4546 17.2102 87.2114 17.2102C86.3274 17.2102 85.4711 17.4589 84.7805 17.9285V15.7737C85.4158 15.387 86.5761 15.0279 87.7363 15.0279C90.1949 15.0279 91.5485 16.271 91.5485 18.4533V24.1164H89.1728V23.6468C88.8689 23.9507 88.0126 24.2822 87.0181 24.2822C85.2224 24.2822 83.7307 23.2601 83.7307 21.4092C83.7307 19.7241 85.2225 18.5638 87.1838 18.5638C87.9573 18.5638 88.8137 18.8125 89.1728 19.0887V18.5915H89.2004ZM89.2004 21.0777C88.9794 20.6081 88.3164 20.3042 87.6258 20.3042C86.8523 20.3042 86.0512 20.6357 86.0512 21.4092C86.0512 22.1827 86.8523 22.5142 87.6258 22.5142C88.3164 22.5142 88.9794 22.2103 89.2004 21.7407V21.0777Z" fill="#383838"/>
<path opacity="0.91" d="M98.4272 23.1219C98.0404 23.5916 97.2669 24.0059 96.2724 24.0059C93.7033 24.0059 92.2668 21.9341 92.2668 19.5307C92.2668 17.0997 93.731 15.0279 96.2724 15.0279C97.2669 15.0279 98.0404 15.4699 98.4272 15.9119V15.2213H100.886V23.1496C100.886 26.4093 98.4824 27.5972 96.0514 27.5972C94.836 27.5972 93.7033 27.2933 92.9851 26.8513V24.4203C93.8967 25.2214 94.8636 25.5253 95.9962 25.5253C97.3222 25.5253 98.3996 24.8623 98.3996 23.3982V23.1219H98.4272ZM98.4272 18.039C98.1509 17.5417 97.5156 17.1274 96.7697 17.1274C95.4437 17.1274 94.6978 18.1495 94.6978 19.5583C94.6978 20.9396 95.4437 21.9617 96.7697 21.9617C97.5156 21.9617 98.1509 21.575 98.4272 21.0501V18.039Z" fill="#383838"/>
<path opacity="0.91" d="M104.035 20.249C104.228 21.7131 105.278 22.2932 106.604 22.2932C107.571 22.2932 108.262 22.0722 109.145 21.5197V23.5363C108.4 24.0612 107.405 24.3098 106.217 24.3098C103.51 24.3098 101.659 22.5695 101.659 19.7241C101.659 16.934 103.4 15.0003 105.831 15.0003C108.427 15.0003 109.753 16.7959 109.753 19.4202V20.2213H104.035V20.249ZM104.118 18.6467H107.488C107.433 17.6799 106.88 17.0169 105.913 17.0169C105.085 17.0169 104.394 17.5417 104.118 18.6467Z" fill="#383838"/>
<path opacity="0.91" d="M122.544 20.7738C122.544 22.9286 121.052 24.1441 118.566 24.1441H114.449V11.9339H118.179C120.693 11.9339 122.074 13.0665 122.074 15.0831C122.074 16.6854 121.107 17.4865 120.057 17.818C121.604 18.0666 122.544 19.3097 122.544 20.7738ZM118.206 17.4036C120.085 17.4036 121.107 16.6578 121.107 15.1108C121.107 13.5638 120.085 12.8179 118.206 12.8179H115.472V17.4036H118.206ZM115.444 23.2325H118.621C120.527 23.2325 121.521 22.2656 121.521 20.7738C121.521 19.2821 120.527 18.3152 118.621 18.3152H115.444V23.2325Z" fill="#383838"/>
<path opacity="0.91" d="M129.008 18.0114C129.008 16.8235 128.179 16.05 126.825 16.05C125.803 16.05 124.974 16.3539 124.256 16.8235V15.8566C124.864 15.4699 125.831 15.1108 126.908 15.1108C128.787 15.1108 129.947 16.1881 129.947 17.9285V24.1164H128.98V23.2877C128.593 23.7573 127.626 24.2546 126.521 24.2546C124.726 24.2546 123.262 23.2325 123.262 21.5197C123.262 19.8899 124.726 18.8125 126.577 18.8125C127.626 18.8125 128.593 19.3097 128.98 19.7517V18.0114H129.008ZM129.008 20.9948C128.731 20.249 127.737 19.6689 126.66 19.6689C125.416 19.6689 124.256 20.2766 124.256 21.5473C124.256 22.7905 125.416 23.4258 126.66 23.4258C127.737 23.4258 128.731 22.8733 129.008 22.0998V20.9948Z" fill="#383838"/>
<path opacity="0.91" d="M131.853 15.3041H132.848V16.713C133.372 15.8843 134.422 15.1108 135.665 15.1108C137.682 15.1108 138.732 16.4091 138.732 18.26V24.1164H137.765V18.4257C137.765 17.0445 137.074 16.05 135.499 16.05C134.284 16.05 133.29 16.9064 132.848 17.9561V24.1441H131.853V15.3041Z" fill="#383838"/>
<path opacity="0.91" d="M147.489 24.1441H146.245L141.66 19.6136V24.1441H140.665V11.2157H141.66V19.1716L146.107 15.3041H147.406L142.682 19.3374L147.489 24.1441Z" fill="#383838"/>
</g>
</g>
<path d="M27.68 32.1L17.7903 6.76808C17.6246 6.29846 17.1826 5.99458 16.6577 5.99458H10.2764V20.7462C10.2764 22.3761 11.6024 23.7021 13.2322 23.7021H19.282L18.3704 21.2987C18.2047 20.8567 17.7903 20.5528 17.3207 20.5528H14.2543C13.7571 20.5528 13.3703 20.1661 13.3703 19.6689V9.08856H14.7792C15.1107 9.08856 15.387 9.28193 15.5251 9.5858L24.1993 31.3541C24.365 31.7961 24.7794 32.0724 25.249 32.0724H27.68V32.1Z" fill="#0073E7"/>
<path d="M25.2215 25.7463L24.1165 22.9009C23.3982 23.7021 22.5971 24.4203 21.7131 25.028L22.7629 27.6524C23.6192 27.1275 24.448 26.4645 25.2215 25.7463Z" fill="#0073E7"/>
<path d="M20.249 25.8844C18.6467 26.6579 16.8511 27.0999 14.945 27.0999C8.23219 27.0999 2.7901 21.6578 2.7901 14.945C2.7901 10.5527 5.13821 6.71282 8.61893 4.55809L9.08856 4.28184C10.8289 3.31497 12.8179 2.76248 14.945 2.76248C21.6578 2.76248 27.0999 8.20456 27.0999 14.9174C27.0999 17.2655 26.4369 19.4478 25.2767 21.2987L26.4645 24.3651C28.564 21.796 29.8348 18.5086 29.8348 14.9174C29.8348 6.6852 23.1496 0 14.9174 0C6.6852 0 0 6.6852 0 14.9174C0 23.1496 6.6852 29.8348 14.9174 29.8348C17.1826 29.8348 19.3374 29.3375 21.2435 28.4259L20.249 25.8844Z" fill="#0073E7"/>
</svg>
